<svg id="Layer_1" data-name="Layer 1" xmlns="http://www.w3.org/2000/svg" viewBox="0 0 928 928"><defs><style>.cls-1{fill:none;stroke:#af251b;stroke-miterlimit:10;stroke-width:32px;}.cls-2{fill:#af251b;}</style></defs><circle class="cls-1" cx="464" cy="464" r="448"/><circle class="cls-1" cx="464" cy="464" r="356"/><path class="cls-2" d="M256.26,514.36V346.18h72.08a16.82,16.82,0,0,1,12.13,5,16.49,16.49,0,0,1,5.16,12.25v51.66a16.51,16.51,0,0,1-5.16,12.26,16.82,16.82,0,0,1-12.13,5H278.6v81.93ZM278.6,410.09h36a8.62,8.62,0,0,0,8.65-8.65V376.93a8.08,8.08,0,0,0-2.52-5.89,8.35,8.35,0,0,0-6.13-2.52h-36Z" transform="translate(-48 -48)"/><path class="cls-2" d="M360.53,514.36V346.18h72.08a16.41,16.41,0,0,1,12,5,16.7,16.7,0,0,1,5.05,12.25v51.66a16.72,16.72,0,0,1-5.05,12.26,16.41,16.41,0,0,1-12,5h-5.05l22.11,81.93H427.56l-22.34-81.93H382.87v81.93Zm22.34-104.27h36a8.47,8.47,0,0,0,6-2.53,8.14,8.14,0,0,0,2.64-6.12V377.17a8.17,8.17,0,0,0-2.64-6.13,8.5,8.5,0,0,0-6-2.52h-36Z" transform="translate(-48 -48)"/><path class="cls-2" d="M467,514.36V346.18h89.37v22.1h-67v41.81H534l-5,22.34H489.31V492h67v22.34Z" transform="translate(-48 -48)"/><path class="cls-2" d="M588.06,514.36a17.23,17.23,0,0,1-17.3-17.3V459.82l22.34,5.05v18.5a8.3,8.3,0,0,0,2.53,6.12,8.07,8.07,0,0,0,5.88,2.53H628.9a8.62,8.62,0,0,0,8.65-8.65V441.08a8.6,8.6,0,0,0-8.65-8.65H588.06a17.21,17.21,0,0,1-17.3-17.3V363.47a17.21,17.21,0,0,1,17.3-17.29H642.6a17.23,17.23,0,0,1,17.3,17.29v25.95l-22.35-5.28v-7a8.6,8.6,0,0,0-8.65-8.65H601.51a8.06,8.06,0,0,0-5.88,2.52,8.32,8.32,0,0,0-2.53,6.13v24.27a8.3,8.3,0,0,0,2.53,6.12,8,8,0,0,0,5.88,2.53H642.6a17.23,17.23,0,0,1,17.3,17.3v69.67a17.24,17.24,0,0,1-17.3,17.3Z" transform="translate(-48 -48)"/><path class="cls-2" d="M696.42,514.36a17.23,17.23,0,0,1-17.3-17.3V459.82l22.34,5.05v18.5a8.3,8.3,0,0,0,2.53,6.12,8.07,8.07,0,0,0,5.88,2.53h27.39a8.62,8.62,0,0,0,8.65-8.65V441.08a8.6,8.6,0,0,0-8.65-8.65H696.42a17.21,17.21,0,0,1-17.3-17.3V363.47a17.21,17.21,0,0,1,17.3-17.29H751a17.23,17.23,0,0,1,17.3,17.29v25.95l-22.35-5.28v-7a8.6,8.6,0,0,0-8.65-8.65H709.87A8.06,8.06,0,0,0,704,371a8.32,8.32,0,0,0-2.53,6.13v24.27a8.3,8.3,0,0,0,2.53,6.12,8,8,0,0,0,5.88,2.53H751a17.23,17.23,0,0,1,17.3,17.3v69.67a17.24,17.24,0,0,1-17.3,17.3Z" transform="translate(-48 -48)"/><path class="cls-2" d="M439,754.62V608.78H416.63l5.05-22.34h39.64V754.62Z" transform="translate(-48 -48)"/><path class="cls-2" d="M495.92,754.62V586.44h22.34L551.66,689l33.39-102.59H607.4V754.62H585.05v-100l-22.34,68.48h-22.1l-22.35-68.48v100Z" transform="translate(-48 -48)"/></svg>