<?xml version="1.0" encoding="UTF-8"?>
<svg id="Layer_6" data-name="Layer 6" xmlns="http://www.w3.org/2000/svg" viewBox="0 0 20 20">
  <defs>
    <style>
      .cls-1 {
        fill: none;
        stroke: #871f17;
        stroke-miterlimit: 10;
        stroke-width: 2px;
      }

      .cls-2 {
        fill: #88201b;
      }

      .cls-3 {
        fill: #871f17;
      }
    </style>
  </defs>
  <circle class="cls-1" cx="10" cy="10" r="9"/>
  <path class="cls-3" d="M11.65,11.11c-.14,.14-.31,.21-.51,.21h-3v-3.46h3c.2,0,.37,.07,.51,.21s.21,.3,.21,.49v2.04c0,.2-.07,.37-.21,.51Z"/>
  <path class="cls-2" d="M16.5,10c0,3.59-2.91,6.5-6.5,6.5-.6,0-1.18-.08-1.73-.23v-3.32h3.84c.36,0,.67-.13,.94-.39,.27-.26,.4-.58,.4-.95v-3.99c0-.37-.13-.69-.4-.95-.27-.26-.58-.39-.94-.39H6.55V15.51c-1.83-1.15-3.05-3.18-3.05-5.51,0-3.59,2.91-6.5,6.5-6.5s6.5,2.91,6.5,6.5Z"/>
</svg>