<?xml version="1.0" encoding="UTF-8"?>
<svg id="Layer_1" data-name="Layer 1" xmlns="http://www.w3.org/2000/svg" viewBox="0 0 388 388">
  <defs>
    <style>
      .cls-1 {
        fill: #87211b;
      }

      .cls-2 {
        fill: none;
        stroke: #871f1b;
        stroke-miterlimit: 10;
        stroke-width: 32px;
      }

      .cls-3 {
        fill: #871f1b;
      }
    </style>
  </defs>
  <circle class="cls-2" cx="194" cy="194" r="178"/>
  <path class="cls-3" d="M226.63,215.95c-2.77,2.77-6.13,4.15-10.09,4.15h-59.33v-68.43h59.33c3.96,0,7.32,1.38,10.09,4.15s4.15,5.93,4.15,9.69v40.35c0,3.96-1.38,7.32-4.15,10.09Z"/>
  <path class="cls-1" d="M322.56,194c0,71.07-57.48,128.56-128.56,128.56-11.94,0-23.32-1.65-34.16-4.59v-65.56h76.03c7.16,0,13.22-2.57,18.55-7.71,5.33-5.14,7.9-11.39,7.9-18.73v-78.97c0-7.35-2.57-13.59-7.9-18.73-5.33-5.14-11.39-7.71-18.55-7.71H125.68v182.37c-36.18-22.77-60.24-62.99-60.24-108.9,0-71.07,57.48-128.56,128.56-128.56s128.56,57.48,128.56,128.56Z"/>
</svg>