<svg xmlns="http://www.w3.org/2000/svg" viewBox="0 0 384 384"><defs><style>.a{fill:#87211b;}</style></defs><path class="a" d="M454.34,224a190.73,190.73,0,0,0-23-64q-3-5.19-6.31-10.16A191.57,191.57,0,0,0,408.1,128,188.72,188.72,0,0,0,393,112.9,191.57,191.57,0,0,0,371.16,96q-5-3.31-10.16-6.31a190.73,190.73,0,0,0-64-23,193.81,193.81,0,0,0-64,0,190.73,190.73,0,0,0-64,23q-5.19,3-10.16,6.31A191.57,191.57,0,0,0,137,112.9,188.72,188.72,0,0,0,121.9,128,191.57,191.57,0,0,0,105,149.84q-3.31,5-6.31,10.16a190.73,190.73,0,0,0-23,64,193.81,193.81,0,0,0,0,64,190.73,190.73,0,0,0,23,64q3,5.19,6.31,10.16A191.57,191.57,0,0,0,121.9,384,188.72,188.72,0,0,0,137,399.1,191.57,191.57,0,0,0,158.84,416q5,3.31,10.16,6.31a190.73,190.73,0,0,0,64,23,193.81,193.81,0,0,0,64,0,190.73,190.73,0,0,0,64-23q5.19-3,10.16-6.31A191.57,191.57,0,0,0,393,399.1,188.72,188.72,0,0,0,408.1,384,191.57,191.57,0,0,0,425,362.16q3.31-5,6.31-10.16a190.73,190.73,0,0,0,23-64,193.81,193.81,0,0,0,0-64ZM421.8,288A159.1,159.1,0,0,1,393,352h0a160.54,160.54,0,0,1-32,32h0a159.76,159.76,0,0,1-192,0h0a160.54,160.54,0,0,1-32-32h0a159.76,159.76,0,0,1,0-192h0a160.54,160.54,0,0,1,32-32h0a159.76,159.76,0,0,1,192,0h0a160.54,160.54,0,0,1,32,32h0A160.4,160.4,0,0,1,421.8,288Z" transform="translate(-73 -64)"/><path class="a" d="M393,256a127.53,127.53,0,0,1-32.6,85.33,122.67,122.67,0,0,1-10.07,10.07,128.14,128.14,0,0,1-128,25.31V329.92A85.41,85.41,0,1,0,179.67,256v95.4a122.67,122.67,0,0,1-10.07-10.07,127.86,127.86,0,0,1,0-170.66,122.67,122.67,0,0,1,10.07-10.07,127.86,127.86,0,0,1,170.66,0,122.67,122.67,0,0,1,10.07,10.07A127.53,127.53,0,0,1,393,256Z" transform="translate(-73 -64)"/><circle class="a" cx="192" cy="192" r="42.67"/></svg>