<svg xmlns="http://www.w3.org/2000/svg" viewBox="0 0 412 412"><defs><style>.a{fill:#7e2a29;}</style></defs><path class="a" d="M459,221.58C435.09,75.71,264.55,1.93,141.74,84.36.63,177.74,27.42,393.69,187,450,334.09,502.4,485.5,375.34,459,221.58ZM424,290.19a170.51,170.51,0,0,1-30.91,68.61h0a172.18,172.18,0,0,1-34.34,34.29h0c-58.74,45.47-147.36,45.47-206.11,0h0a172.18,172.18,0,0,1-34.34-34.29h0c-45.53-58.66-45.53-147.17,0-205.83h0a172.5,172.5,0,0,1,34.34-34.3h0c58.75-45.47,147.37-45.47,206.11,0h0A172.5,172.5,0,0,1,393.1,153h0C422.37,191.29,433.89,242.92,424,290.19Z" transform="translate(-50 -50)"/><path class="a" d="M384,256c1.54,86.51-89.78,150.59-170.88,120.44V329.76c75.43,43,159.85-41.18,116.73-116.33-31.12-56.22-116.9-56.23-148,0-19.4,25.82-8.93,107.39-11.43,137.76-72.35-62.67-48.12-185,42.73-215.63C294.2,105.41,385.53,169.5,384,256Z" transform="translate(-50 -50)"/><path class="a" d="M298,256c-.95,56-83.06,56-84,0C215,200,297.06,200,298,256Z" transform="translate(-50 -50)"/></svg>